Run_40001
nRows=4
nColumns=164

# SIMM Motion File Header:
name Run_40001
datacolumns 164
datarows 4
otherdata 1
range 2.90000000 2.92500000
endheader
time	pelvis_tilt	pelvis_list	pelvis_rotation	pelvis_tx	pelvis_ty	pelvis_tz	hip_flexion_r	hip_adduction_r	hip_rotation_r	knee_angle_r	ankle_angle_r	hip_flexion_l	hip_adduction_l	hip_rotation_l	knee_angle_l	ankle_angle_l	lumbar_extension	lumbar_bending	lumbar_rotation	arm_flex_r	arm_add_r	arm_rot_r	elbow_flex_r	pro_sup_r	arm_flex_l	arm_add_l	arm_rot_l	elbow_flex_l	pro_sup_l	subtalar_angle_r	mtp_angle_r	subtalar_angle_l	mtp_angle_l	wrist_flex_r	wrist_dev_r	wrist_flex_l	wrist_dev_l	LASI_tx	LASI_ty	LASI_tz	RASI_tx	RASI_ty	RASI_tz	LPSI_tx	LPSI_ty	LPSI_tz	RPSI_tx	RPSI_ty	RPSI_tz	RTH1_tx	RTH1_ty	RTH1_tz	RTH2_tx	RTH2_ty	RTH2_tz	RTH3_tx	RTH3_ty	RTH3_tz	LTH1_tx	LTH1_ty	LTH1_tz	LTH2_tx	LTH2_ty	LTH2_tz	LTH3_tx	LTH3_ty	LTH3_tz	RTB1_tx	RTB1_ty	RTB1_tz	RTB2_tx	RTB2_ty	RTB2_tz	RTB3_tx	RTB3_ty	RTB3_tz	LTB1_tx	LTB1_ty	LTB1_tz	LTB2_tx	LTB2_ty	LTB2_tz	LTB3_tx	LTB3_ty	LTB3_tz	RCAL_tx	RCAL_ty	RCAL_tz	RTOE_tx	RTOE_ty	RTOE_tz	RMT5_tx	RMT5_ty	RMT5_tz	LCAL_tx	LCAL_ty	LCAL_tz	LTOE_tx	LTOE_ty	LTOE_tz	LMT5_tx	LMT5_ty	LMT5_tz	LACR_tx	LACR_ty	LACR_tz	RACR_tx	RACR_ty	RACR_tz	CLAV_tx	CLAV_ty	CLAV_tz	C7_tx	C7_ty	C7_tz	RUA1_tx	RUA1_ty	RUA1_tz	RUA2_tx	RUA2_ty	RUA2_tz	RUA3_tx	RUA3_ty	RUA3_tz	RLEL_tx	RLEL_ty	RLEL_tz	RMEL_tx	RMEL_ty	RMEL_tz	LUA1_tx	LUA1_ty	LUA1_tz	LUA2_tx	LUA2_ty	LUA2_tz	LUA3_tx	LUA3_ty	LUA3_tz	LLEL_tx	LLEL_ty	LLEL_tz	LMEL_tx	LMEL_ty	LMEL_tz	RFAsuperior_tx	RFAsuperior_ty	RFAsuperior_tz	RFAradius_tx	RFAradius_ty	RFAradius_tz	RFAulna_tx	RFAulna_ty	RFAulna_tz	LFAsuperior_tx	LFAsuperior_ty	LFAsuperior_tz	LFAradius_tx	LFAradius_ty	LFAradius_tz	LFAulna_tx	LFAulna_ty	LFAulna_tz
      2.90000000	     -2.91918959	      3.71856743	     -6.31807372	      0.71363708	      0.99263639	     -0.36830394	    -22.53082991	     -3.31680322	      3.17220964	     -8.90448169	    -17.95932843	     47.76976043	      4.32622340	     -3.11323195	    -82.16722704	      8.60790568	     -9.61904693	     -5.51040841	     10.99290933	      9.80120707	    -31.86978896	     15.97304081	    127.42141850	     75.35200686	    -56.25909721	    -27.19198745	    -14.08055665	    127.92771241	     93.76489055	      0.00000000	      0.00000000	      0.00000000	      0.00000000	      0.00000000	      0.00000000	      0.00000000	      0.00000000	      0.73024369	      1.02275085	     -0.49054480	      0.71421329	      1.00870347	     -0.24256962	      0.55890737	      1.04838917	     -0.42792208	      0.55723114	      1.05004372	     -0.33832916	      0.60620970	      0.83433456	     -0.21629693	      0.60825522	      0.70431231	     -0.24838966	      0.47250935	      0.62777266	     -0.24918079	      0.75092387	      0.90476063	     -0.53307648	      0.85670974	      0.85107908	     -0.50273355	      0.88272472	      0.70426938	     -0.51148200	      0.42238988	      0.41963711	     -0.30855844	      0.35175238	      0.38708591	     -0.25509638	      0.31035187	      0.27691425	     -0.32480749	      0.91157978	      0.49631178	     -0.43249947	      0.81794975	      0.43683323	     -0.49313822	      0.77198252	      0.36291314	     -0.42555369	      0.14406187	      0.23924174	     -0.33422252	      0.28535956	      0.07476238	     -0.36671732	      0.24468258	      0.07633088	     -0.27596222	      0.60609940	      0.32278142	     -0.44359008	      0.79133839	      0.21039869	     -0.41545566	      0.76435804	      0.19974333	     -0.50386526	      0.67090452	      1.48669022	     -0.55277651	      0.73629197	      1.46745583	     -0.19398350	      0.79777157	      1.42777309	     -0.36914651	      0.67348973	      1.51940217	     -0.36917456	      0.74447330	      1.35950673	     -0.12722205	      0.77406239	      1.29746826	     -0.13317022	      0.69447644	      1.26946955	     -0.06462764	      0.74673475	      1.20201344	     -0.04161653	      0.68583103	      1.15343444	     -0.09166336	      0.61025923	      1.45884686	     -0.60236179	      0.53460673	      1.42823618	     -0.57673833	      0.55116336	      1.40080852	     -0.65197861	      0.46875927	      1.33426925	     -0.69745521	      0.41990364	      1.31014346	     -0.62577439	      0.81187897	      1.22451649	     -0.09104456	      0.89530170	      1.26557648	     -0.22947453	      0.90983828	      1.20032953	     -0.21416431	      0.52908568	      1.29597850	     -0.69431916	      0.65407417	      1.19964010	     -0.61203057	      0.61757610	      1.15440832	     -0.64285698
      2.90833300	     -3.39647359	      4.06378336	     -5.99441652	      0.71542449	      0.99667023	     -0.36930792	    -23.50018036	     -3.87681813	      1.20360697	     -8.74919855	    -22.22711072	     47.36787808	      4.98546198	     -2.58919342	    -75.89495821	      8.62472651	     -8.71680626	     -5.87536845	     11.64629438	      8.91098523	    -31.91886691	     17.14994934	    128.24977222	     76.19122671	    -56.46113749	    -27.89285087	    -14.25815672	    128.37581875	     93.61095728	      0.00000000	      0.00000000	      0.00000000	      0.00000000	      0.00000000	      0.00000000	      0.00000000	      0.00000000	      0.73118864	      1.02805615	     -0.49078793	      0.71795000	      1.01256868	     -0.24413022	      0.56141434	      1.05415209	     -0.42842453	      0.56095975	      1.05533231	     -0.33889873	      0.60305475	      0.83973972	     -0.21623057	      0.60159221	      0.70923823	     -0.24631743	      0.46452005	      0.63662937	     -0.24839276	      0.75233069	      0.91019028	     -0.53197819	      0.85722849	      0.85482857	     -0.50350120	      0.87946535	      0.70575371	     -0.50952681	      0.41074874	      0.42901671	     -0.30596680	      0.33884374	      0.39829585	     -0.25306478	      0.29562869	      0.28795119	     -0.32197829	      0.92096676	      0.49508533	     -0.43326604	      0.83192364	      0.42748668	     -0.49274552	      0.79375116	      0.34993776	     -0.42444280	      0.13344942	      0.26044346	     -0.33245476	      0.25915206	      0.08344049	     -0.36416972	      0.21606639	      0.08457363	     -0.27422061	      0.63167038	      0.29423004	     -0.44218609	      0.82667556	      0.20083057	     -0.41166269	      0.80096124	      0.18561811	     -0.50027244	      0.66789272	      1.49048858	     -0.55307641	      0.73823864	      1.47220853	     -0.19602229	      0.79715774	      1.43233514	     -0.37150466	      0.67286381	      1.52345107	     -0.36989534	      0.74797706	      1.36485760	     -0.12873912	      0.77734472	      1.30228900	     -0.13515680	      0.69941081	      1.27507237	     -0.06423480	      0.75114128	      1.20667855	     -0.04367407	      0.68726123	      1.15912632	     -0.09150094	      0.60717043	      1.46376248	     -0.60231653	      0.53152028	      1.43370355	     -0.57690329	      0.54767015	      1.40596969	     -0.65218370	      0.46474919	      1.33950170	     -0.69755812	      0.41690311	      1.31489690	     -0.62550708	      0.81429499	      1.22905830	     -0.09557853	      0.89167516	      1.27045886	     -0.23727531	      0.90697958	      1.20531145	     -0.22265174	      0.52535863	      1.30213688	     -0.69484853	      0.65222564	      1.20720437	     -0.61380927	      0.61631796	      1.16165958	     -0.64449163
      2.91666700	     -3.91737252	      4.28533882	     -5.74092708	      0.71674055	      1.00017081	     -0.37032194	    -23.81980128	     -4.30382240	     -0.69315906	     -9.89738697	    -25.55691351	     46.73295595	      5.43737969	     -2.05064866	    -69.33623051	      8.55290889	     -7.85882736	     -6.09321261	     12.31898494	      7.94558910	    -32.03311319	     18.35222570	    128.96272021	     76.69997693	    -56.43651277	    -28.58209062	    -14.40060814	    128.70913634	     93.32173938	      0.00000000	      0.00000000	      0.00000000	      0.00000000	      0.00000000	      0.00000000	      0.00000000	      0.00000000	      0.73198115	      1.03245288	     -0.49095334	      0.72084107	      1.01655492	     -0.24566436	      0.56368978	      1.05964231	     -0.42895536	      0.56387322	      1.06069721	     -0.33942533	      0.60038843	      0.84496114	     -0.21603744	      0.59680534	      0.71355398	     -0.24378971	      0.45961838	      0.64358540	     -0.24776518	      0.75271975	      0.91415709	     -0.53168796	      0.85652671	      0.85688711	     -0.50558914	      0.87519191	      0.70591927	     -0.50778084	      0.40079713	      0.43617961	     -0.30434416	      0.32790559	      0.40789805	     -0.25182654	      0.28079475	      0.29890830	     -0.32007231	      0.92879607	      0.49311807	     -0.43376692	      0.84551524	      0.41767028	     -0.49223233	      0.81502467	      0.33735791	     -0.42318509	      0.12292620	      0.28221189	     -0.33137267	      0.23203633	      0.09411788	     -0.36091816	      0.18665340	      0.09620262	     -0.27256296	      0.65816836	      0.26661382	     -0.44045633	      0.86098960	      0.19284515	     -0.40801010	      0.83694718	      0.17324387	     -0.49698463	      0.66542191	      1.49348226	     -0.55352810	      0.73991256	      1.47628220	     -0.19789881	      0.79670831	      1.43614201	     -0.37382888	      0.67233308	      1.52682636	     -0.37064942	      0.75100872	      1.36946774	     -0.13014873	      0.78015625	      1.30631696	     -0.13666957	      0.70347158	      1.28008925	     -0.06392138	      0.75454885	      1.21063389	     -0.04541732	      0.68796490	      1.16427331	     -0.09097935	      0.60458270	      1.46778782	     -0.60244135	      0.52888612	      1.43831834	     -0.57732088	      0.54471355	      1.41026604	     -0.65256679	      0.46141133	      1.34374476	     -0.69808830	      0.41453890	      1.31852170	     -0.62556138	      0.81590493	      1.23260003	     -0.09963459	      0.88765571	      1.27375742	     -0.24413928	      0.90320177	      1.20878952	     -0.23067841	      0.52231354	      1.30738112	     -0.69568182	      0.65109168	      1.21382968	     -0.61593347	      0.61575894	      1.16795392	     -0.64645901
      2.92500000	     -4.41040714	      4.39851080	     -5.61335905	      0.71745746	      1.00306865	     -0.37113904	    -23.61148634	     -4.68802987	     -2.21835622	    -12.30279234	    -27.77782229	     45.83074458	      5.59954754	     -1.66767179	    -62.56404129	      8.30095534	     -7.13661266	     -6.20945789	     13.00460819	      7.00397703	    -32.17727101	     19.54665159	    129.49873359	     77.17000556	    -56.21403463	    -29.22346607	    -14.55508760	    128.97587826	     92.87212974	      0.00000000	      0.00000000	      0.00000000	      0.00000000	      0.00000000	      0.00000000	      0.00000000	      0.00000000	      0.73253765	      1.03569192	     -0.49092561	      0.72236097	      1.02041258	     -0.24688462	      0.56546839	      1.06470753	     -0.42928279	      0.56544417	      1.06592971	     -0.33966628	      0.59867120	      0.84959703	     -0.21574994	      0.59436010	      0.71690368	     -0.24093528	      0.45773683	      0.64847729	     -0.24724892	      0.75202519	      0.91638953	     -0.53239320	      0.85449050	      0.85743239	     -0.50916820	      0.87038575	      0.70500800	     -0.50683272	      0.39216933	      0.44134539	     -0.30330264	      0.31831669	      0.41638313	     -0.25113109	      0.26581965	      0.31011203	     -0.31888568	      0.93488282	      0.49048824	     -0.43394408	      0.85857683	      0.40743886	     -0.49163442	      0.83535714	      0.32533143	     -0.42179317	      0.11162109	      0.30431538	     -0.33104622	      0.20376638	      0.10671898	     -0.35703385	      0.15712768	      0.11165011	     -0.27093966	      0.68511159	      0.24038993	     -0.43814290	      0.89380916	      0.18623362	     -0.40486941	      0.87154728	      0.16266548	     -0.49410796	      0.66347650	      1.49566855	     -0.55411488	      0.74138639	      1.47959878	     -0.19950610	      0.79638386	      1.43928526	     -0.37607775	      0.67191761	      1.52950324	     -0.37146592	      0.75352638	      1.37318875	     -0.13144421	      0.78248286	      1.30953742	     -0.13769348	      0.70650137	      1.28438486	     -0.06384753	      0.75695304	      1.21380680	     -0.04685395	      0.68802219	      1.16874962	     -0.09026758	      0.60259474	      1.47086750	     -0.60275406	      0.52679909	      1.44194779	     -0.57801998	      0.54239219	      1.41361276	     -0.65312322	      0.45883011	      1.34694328	     -0.69891796	      0.41285214	      1.32095834	     -0.62589632	      0.81674197	      1.23505216	     -0.10319816	      0.88337490	      1.27538952	     -0.25013505	      0.89876552	      1.21065688	     -0.23782079	      0.52003775	      1.31166203	     -0.69682866	      0.65073656	      1.21944606	     -0.61837864	      0.61593761	      1.17319230	     -0.64868428
